<?xml version="1.0" encoding="utf-8"?>
<!-- Generator: Adobe Illustrator 24.0.1, SVG Export Plug-In . SVG Version: 6.00 Build 0)  -->
<svg version="1.1" id="Layer_1" xmlns="http://www.w3.org/2000/svg" xmlns:xlink="http://www.w3.org/1999/xlink" x="0px" y="0px"
	 viewBox="0 0 1498.3 339.4" style="enable-background:new 0 0 1498.3 339.4;" xml:space="preserve">
<style type="text/css">
	.st0{fill:#AF2D3F;}
	.st1{fill:#324180;}
	.st2{clip-path:url(#SVGID_2_);fill:url(#SVGID_3_);}
	.st3{fill:#F2F2F4;}
</style>
<path class="st0" d="M409.7,41.2c0,3.4-0.8,6.6-2.3,9.5s-4.1,5.3-7.7,7.2v0.3c2,0.7,3.8,1.5,5.4,2.6c1.6,1.1,3,2.3,4.2,3.7
	c1.2,1.5,2.1,3.1,2.7,4.9c0.6,1.8,1,3.9,1,6.1c0,1.9-0.3,4-0.9,6.2c-0.6,2.2-1.7,4.4-3.2,6.4c-1.5,2.1-3.6,4-6.2,5.7
	c-2.6,1.7-5.8,3.1-9.7,4.2c-1,0.2-2.1,0.5-3.2,0.6c-1.2,0.2-2.5,0.4-3.9,0.5s-3,0.2-4.8,0.3c-1.7,0.1-3.7,0.1-5.9,0.1h-23.1V20h27.6
	c5.9,0,10.6,0.6,14.3,1.8c2.7,0.9,5,2,7,3.4s3.6,3,4.9,4.7c1.3,1.7,2.2,3.5,2.8,5.5C409.4,37.3,409.7,39.3,409.7,41.2 M379.8,52.8
	c4,0,6.9-0.4,8.8-1.2c2.2-0.9,3.7-2.2,4.7-3.8c0.9-1.6,1.4-3.4,1.4-5.4c0-2.1-0.5-4-1.6-5.6s-2.9-2.9-5.5-3.7
	c-1.1-0.3-2.3-0.5-3.7-0.7c-1.4-0.1-3.2-0.2-5.3-0.2h-11.9v20.5L379.8,52.8L379.8,52.8z M366.7,64.9v22.4h9.5c2.5,0,4.7-0.1,6.5-0.2
	c1.8-0.1,3.4-0.4,4.7-0.7c2-0.4,3.7-1,5-1.7c1.4-0.7,2.4-1.6,3.3-2.5c0.8-0.9,1.4-2,1.8-3.1c0.4-1.1,0.5-2.3,0.5-3.6
	c0-2.2-0.6-4.2-1.9-5.8c-1.2-1.7-3.1-2.9-5.8-3.7c-1.2-0.4-2.5-0.6-4-0.8s-3.5-0.2-5.9-0.2L366.7,64.9L366.7,64.9z"/>
<path class="st0" d="M488.2,101c-4.2,0-7.9-0.4-11.2-1.2s-6.3-2-8.8-3.5s-4.7-3.4-6.5-5.6c-1.8-2.2-3.2-4.7-4.3-7.5
	c-0.9-2.2-1.5-4.7-1.9-7.4s-0.6-5.7-0.6-9V20h14.6v45.5c0,5.6,0.7,10,2,13.2c1.5,3.5,3.7,6.1,6.6,7.6c2.9,1.6,6.3,2.4,10.2,2.4
	s7.3-0.8,10.2-2.4c2.9-1.6,5.1-4.1,6.6-7.6c1.3-3.2,2-7.6,2-13.2V20h14.6v46.8c0,3.3-0.2,6.3-0.6,9c-0.4,2.7-1,5.2-1.9,7.4
	c-1.1,2.8-2.5,5.3-4.3,7.5c-1.8,2.2-4,4.1-6.6,5.6s-5.6,2.7-8.9,3.5C496.1,100.6,492.3,101,488.2,101"/>
<path class="st0" d="M606.6,76.7c0-2-0.5-3.7-1.5-4.9s-2.3-2.3-4-3.1c-1.7-0.8-3.6-1.4-5.7-1.9s-4.3-1-6.7-1.5
	c-3.1-0.7-6-1.5-8.9-2.4c-2.8-0.9-5.3-2.2-7.4-3.9c-2.1-1.6-3.8-3.7-5.1-6.3c-1.3-2.5-1.9-5.7-1.9-9.5c0-4.2,0.7-7.9,2.2-11
	s3.5-5.7,6-7.7s5.5-3.6,8.8-4.6c3.4-1,7.2-1.5,11.4-1.5c4.2,0,8.5,0.4,12.8,1.2c4.3,0.8,8,1.9,11,3.2v12.7
	c-4.1-1.6-8.1-2.8-11.8-3.5c-3.8-0.7-7.3-1.1-10.7-1.1c-4.8,0-8.5,0.9-11.1,2.6c-2.6,1.7-3.9,4.4-3.9,7.8c0,2,0.4,3.7,1.3,5
	c0.9,1.3,2,2.4,3.5,3.2c1.5,0.9,3.1,1.5,5.1,2.1c1.9,0.5,3.9,1,6.1,1.4c3.4,0.7,6.6,1.5,9.6,2.5c3.1,0.9,5.8,2.2,8.2,3.9
	s4.3,3.8,5.7,6.5s2.1,6.1,2.1,10.2c0,4.3-0.8,8-2.4,11.1c-1.6,3.1-3.8,5.7-6.7,7.7s-6.4,3.6-10.6,4.5c-4.2,1-8.7,1.5-13.7,1.5
	c-4.3,0-8.6-0.4-12.7-1.3c-4.2-0.8-7.7-2-10.4-3.6V83.7c3.9,1.7,7.7,2.9,11.5,3.7c3.7,0.8,7.6,1.2,11.5,1.2c2.3,0,4.6-0.2,6.8-0.6
	c2.2-0.4,4.2-1,6-1.9c1.8-0.9,3.2-2.1,4.2-3.7C606.1,80.9,606.6,79,606.6,76.7"/>
<rect x="665.1" y="20.1" class="st0" width="14.5" height="79.5"/>
<path class="st0" d="M767.4,57c5.7,8.1,10.3,15.3,13.9,21.6h0.4C781.2,68.3,781,60.7,781,56V20h14.5v79.5h-15.3l-25.9-36.6
	c-4.5-6.3-9.3-13.7-14.1-22h-0.4c0.5,9.7,0.7,17.3,0.7,22.6v36H726V20h15.3L767.4,57z"/>
<polygon class="st0" points="856.4,87.3 895.4,87.3 895.4,99.5 841.8,99.5 841.8,20.1 893.3,20.1 893.3,32.2 856.4,32.2 856.4,52.8 
	888.1,52.8 888.1,64.9 856.4,64.9 "/>
<path class="st0" d="M977.3,76.7c0-2-0.5-3.7-1.5-4.9s-2.3-2.3-4-3.1s-3.6-1.4-5.7-1.9s-4.4-1-6.7-1.5c-3.1-0.7-6-1.5-8.9-2.4
	c-2.8-0.9-5.3-2.2-7.4-3.9c-2.1-1.6-3.8-3.7-5.1-6.3c-1.3-2.5-1.9-5.7-1.9-9.5c0-4.2,0.7-7.9,2.2-11s3.5-5.7,6-7.7s5.5-3.6,8.8-4.6
	c3.4-1,7.2-1.5,11.4-1.5c4.2,0,8.5,0.4,12.8,1.2s8,1.9,11.1,3.2v12.7c-4.1-1.6-8.1-2.8-11.8-3.5c-3.8-0.7-7.3-1.1-10.7-1.1
	c-4.8,0-8.5,0.9-11.1,2.6c-2.6,1.7-3.9,4.4-3.9,7.8c0,2,0.4,3.7,1.3,5c0.8,1.3,2,2.4,3.5,3.2c1.5,0.9,3.1,1.5,5,2.1
	c1.9,0.5,3.9,1,6.1,1.4c3.4,0.7,6.6,1.5,9.7,2.5c3.1,0.9,5.8,2.2,8.2,3.9c2.4,1.7,4.3,3.8,5.7,6.5c1.4,2.7,2.1,6.1,2.1,10.2
	c0,4.3-0.8,8-2.4,11.1s-3.8,5.7-6.7,7.7c-2.9,2-6.5,3.6-10.6,4.5c-4.2,1-8.7,1.5-13.7,1.5c-4.3,0-8.6-0.4-12.7-1.3
	c-4.2-0.8-7.7-2-10.4-3.6V83.7c3.9,1.7,7.7,2.9,11.4,3.7c3.7,0.8,7.6,1.2,11.5,1.2c2.3,0,4.6-0.2,6.8-0.6c2.2-0.4,4.2-1,6-1.9
	s3.2-2.1,4.2-3.7C976.8,80.9,977.3,79,977.3,76.7"/>
<path class="st0" d="M1074.5,76.7c0-2-0.5-3.7-1.5-4.9s-2.3-2.3-4-3.1s-3.6-1.4-5.7-1.9s-4.3-1-6.7-1.5c-3.1-0.7-6-1.5-8.9-2.4
	c-2.8-0.9-5.3-2.2-7.4-3.9c-2.1-1.6-3.8-3.7-5.1-6.3c-1.3-2.5-1.9-5.7-1.9-9.5c0-4.2,0.7-7.9,2.2-11s3.5-5.7,6-7.7s5.5-3.6,8.9-4.6
	s7.2-1.5,11.4-1.5c4.2,0,8.5,0.4,12.8,1.2s8,1.9,11,3.2v12.7c-4.1-1.6-8.1-2.8-11.9-3.5s-7.3-1.1-10.7-1.1c-4.8,0-8.5,0.9-11.1,2.6
	c-2.6,1.7-3.9,4.4-3.9,7.8c0,2,0.4,3.7,1.3,5s2,2.4,3.5,3.2c1.5,0.9,3.1,1.5,5,2.1c1.9,0.5,3.9,1,6.1,1.4c3.4,0.7,6.6,1.5,9.7,2.5
	c3.1,0.9,5.8,2.2,8.2,3.9c2.4,1.7,4.3,3.8,5.7,6.5c1.4,2.7,2.1,6.1,2.1,10.2c0,4.3-0.8,8-2.4,11.1s-3.8,5.7-6.8,7.7
	c-2.9,2-6.4,3.6-10.6,4.5c-4.2,1-8.7,1.5-13.7,1.5c-4.3,0-8.6-0.4-12.7-1.3c-4.2-0.8-7.6-2-10.4-3.6V83.7c3.9,1.7,7.7,2.9,11.5,3.7
	c3.7,0.8,7.6,1.2,11.5,1.2c2.3,0,4.6-0.2,6.8-0.6c2.2-0.4,4.2-1,6-1.9s3.2-2.1,4.2-3.7C1074,80.9,1074.5,79,1074.5,76.7"/>
<path class="st0" d="M1171.5,30.9c-4,0-7.6,0.7-11,2s-6.2,3.2-8.6,5.7s-4.3,5.6-5.6,9.2c-1.3,3.7-2,7.8-2,12.6
	c0,4.7,0.6,8.8,1.8,12.3c1.2,3.5,3,6.5,5.3,8.9s5.1,4.2,8.4,5.4s7.1,1.8,11.2,1.8c3,0,6.1-0.2,9.2-0.7s6.1-1.2,8.8-2.1v12.5
	c-2.8,0.8-5.8,1.4-9,1.9s-6.5,0.7-10,0.7c-6.7,0-12.6-1-17.8-2.9c-5.1-1.9-9.4-4.6-12.8-8.1s-6-7.7-7.7-12.6
	c-1.7-4.9-2.6-10.3-2.6-16.2c0-6.1,0.9-11.7,2.8-16.9s4.5-9.7,8-13.5s7.8-6.8,13-9s11.1-3.3,17.7-3.3c3.4,0,6.5,0.2,9.6,0.7
	c3,0.5,5.7,1.1,8.1,1.9v12.3c-3.2-1-6.1-1.7-8.9-2.1C1176.8,31.1,1174.1,30.9,1171.5,30.9"/>
<polygon class="st0" points="1245.9,20.1 1245.9,87.3 1283.1,87.3 1283.1,99.5 1231.4,99.5 1231.4,20.1 "/>
<path class="st0" d="M1357.1,101c-4.1,0-7.9-0.4-11.2-1.2c-3.3-0.8-6.3-2-8.8-3.5s-4.7-3.4-6.5-5.6c-1.8-2.2-3.2-4.7-4.3-7.5
	c-0.9-2.2-1.5-4.7-1.9-7.4s-0.6-5.7-0.6-9V20h14.6v45.5c0,5.6,0.7,10,2,13.2c1.5,3.5,3.7,6.1,6.6,7.6c2.9,1.6,6.3,2.4,10.2,2.4
	c3.9,0,7.3-0.8,10.2-2.4c2.9-1.6,5.1-4.1,6.6-7.6c1.3-3.2,2-7.6,2-13.2V20h14.5v46.8c0,3.3-0.2,6.3-0.6,9s-1,5.2-1.9,7.4
	c-1.1,2.8-2.5,5.3-4.3,7.5s-4,4.1-6.6,5.6s-5.6,2.7-8.9,3.5C1365,100.6,1361.2,101,1357.1,101"/>
<path class="st0" d="M1494.1,41.2c0,3.4-0.8,6.6-2.3,9.5s-4.1,5.3-7.7,7.2v0.3c2,0.7,3.8,1.5,5.4,2.6s3,2.3,4.2,3.7
	c1.2,1.5,2.1,3.1,2.7,4.9c0.7,1.8,1,3.9,1,6.1c0,1.9-0.3,4-0.9,6.2s-1.7,4.4-3.2,6.4c-1.5,2.1-3.6,4-6.2,5.7s-5.8,3.1-9.7,4.2
	c-1,0.2-2.1,0.5-3.2,0.6c-1.2,0.2-2.5,0.4-3.9,0.5s-3,0.2-4.7,0.3s-3.7,0.1-5.9,0.1h-23.1V20h27.6c5.9,0,10.6,0.6,14.3,1.8
	c2.7,0.9,5,2,7,3.4s3.6,3,4.9,4.7s2.2,3.5,2.8,5.5C1493.8,37.3,1494.1,39.3,1494.1,41.2 M1464.2,52.8c4,0,6.9-0.4,8.8-1.2
	c2.2-0.9,3.7-2.2,4.7-3.8c0.9-1.6,1.4-3.4,1.4-5.4c0-2.1-0.5-4-1.6-5.6s-2.9-2.9-5.5-3.7c-1.1-0.3-2.3-0.5-3.7-0.7
	c-1.4-0.1-3.2-0.2-5.3-0.2h-11.9v20.5L1464.2,52.8L1464.2,52.8z M1451.1,64.9v22.4h9.5c2.5,0,4.7-0.1,6.5-0.2
	c1.8-0.1,3.4-0.4,4.7-0.7c2-0.4,3.7-1,5.1-1.7c1.3-0.7,2.4-1.6,3.3-2.5c0.8-0.9,1.4-2,1.8-3.1s0.5-2.3,0.5-3.6
	c0-2.2-0.6-4.2-1.8-5.8c-1.2-1.7-3.1-2.9-5.8-3.7c-1.2-0.4-2.5-0.6-4-0.8s-3.5-0.2-5.9-0.2L1451.1,64.9L1451.1,64.9z"/>
<path class="st1" d="M460.8,220.1c0,8-1,15.5-3,22.6c-2,7-5,13.4-9,19s-9,10.5-15,14.6s-13,7.3-21,9.5c-4.6,1.3-9.5,2.2-14.9,2.7
	c-5.3,0.5-11.1,0.8-17.3,0.8h-31.1V152.1h31.4c6.2,0,12,0.3,17.3,0.8s10.3,1.4,14.9,2.7c8,2.3,15,5.4,21,9.4s10.9,8.8,14.9,14.3
	c3.9,5.5,6.9,11.7,8.8,18.6C459.8,204.8,460.8,212.2,460.8,220.1 M444.2,220.1c0-13.2-2.9-23.9-8.7-32.1s-14.2-14-25-17.4
	c-4.1-1.3-8.8-2.2-13.9-2.7c-5.1-0.5-10.9-0.7-17.3-0.7h-12.8v107.1h12.8c6.4,0,12.2-0.2,17.3-0.7s9.8-1.4,13.9-2.7
	c10.9-3.4,19.2-9.4,25-17.9C441.3,244.4,444.2,233.4,444.2,220.1"/>
<path class="st1" d="M534.8,278c5.3,0,10.1-0.4,14.4-1.3c4.3-0.9,8.7-2.1,13-3.7v13.2c-3.5,1.7-7.8,3.1-12.9,4.1s-10.6,1.5-16.5,1.5
	c-7,0-13.5-0.9-19.6-2.7c-6.1-1.8-11.4-4.7-15.9-8.6c-4.5-4-8-9.1-10.5-15.5s-3.8-14.1-3.8-23.1c0-8.9,1.2-16.6,3.7-23.1
	c2.4-6.5,5.7-12,9.8-16.4s8.8-7.7,14.1-9.9c5.3-2.2,10.9-3.3,16.7-3.3c5.5,0,10.6,0.9,15.3,2.7c4.7,1.8,8.9,4.7,12.3,8.6
	c3.5,3.9,6.2,8.9,8.2,15.1s3,13.5,3,22.2v2.1c0,0.6,0,1.9-0.1,3.9h-67.3c0,6.2,0.9,11.5,2.8,15.8c1.9,4.3,4.4,7.9,7.7,10.6
	c3.2,2.7,7.1,4.7,11.4,5.9C525,277.4,529.7,278,534.8,278 M526.4,203c-3.7,0-7.1,0.7-10.2,2.2c-3.1,1.4-5.9,3.4-8.3,5.8
	c-2.3,2.5-4.2,5.4-5.7,8.7c-1.5,3.3-2.4,6.9-2.7,10.6h49.8c0-3.8-0.5-7.4-1.5-10.7c-1-3.3-2.5-6.2-4.4-8.7s-4.3-4.4-7.2-5.8
	C533.4,203.7,530.1,203,526.4,203"/>
<polygon class="st1" points="653.8,211.5 725.7,211.5 725.7,152.1 742.4,152.1 742.4,289.3 725.7,289.3 725.7,226.6 653.8,226.6 
	653.8,289.3 637.1,289.3 637.1,152.1 653.8,152.1 "/>
<path class="st1" d="M821.5,278c5.3,0,10.1-0.4,14.4-1.3s8.7-2.1,13-3.7v13.2c-3.5,1.7-7.8,3.1-12.9,4.1c-5.1,1-10.6,1.5-16.5,1.5
	c-7,0-13.5-0.9-19.6-2.7c-6.1-1.8-11.4-4.7-15.9-8.6c-4.5-4-8-9.1-10.5-15.5s-3.8-14.1-3.8-23.1c0-8.9,1.2-16.6,3.7-23.1
	s5.7-12,9.8-16.4s8.8-7.7,14.1-9.9c5.3-2.2,10.9-3.3,16.7-3.3c5.5,0,10.6,0.9,15.3,2.7c4.7,1.8,8.8,4.7,12.3,8.6s6.2,8.9,8.2,15.1
	s3,13.5,3,22.2v2.1c0,0.6,0,1.9-0.1,3.9h-67.3c0,6.2,0.9,11.5,2.8,15.8s4.4,7.9,7.7,10.6c3.2,2.7,7.1,4.7,11.4,5.9
	C811.7,277.4,816.4,278,821.5,278 M813.1,203c-3.7,0-7.1,0.7-10.2,2.2c-3.1,1.4-5.9,3.4-8.2,5.8c-2.4,2.5-4.3,5.4-5.7,8.7
	c-1.5,3.3-2.4,6.9-2.7,10.6h49.8c0-3.8-0.5-7.4-1.5-10.7c-1-3.3-2.5-6.2-4.4-8.7s-4.3-4.4-7.2-5.8C820.1,203.7,816.8,203,813.1,203"
	/>
<path class="st1" d="M918.4,291.9c-5.1,0-9.6-0.6-13.6-1.6c-4-1.1-7.6-2.6-10.6-4.6s-5.6-4.4-7.7-7.1c-2.1-2.8-3.8-5.8-5-9.1
	c-1-2.5-1.7-5.2-2.1-8.1s-0.6-6.2-0.6-9.6V192h15.9v59.7c0,5.4,0.7,9.9,2.2,13.5c1.6,4.1,4.3,7.3,7.9,9.7c3.7,2.4,8.3,3.5,14,3.5
	c6,0,10.8-1.3,14.5-3.9s6.3-6.1,7.8-10.5c1.2-3.3,1.7-7.5,1.7-12.4v-59.7h15.9v59.9c0,3.3-0.2,6.3-0.6,9.2c-0.4,2.8-1,5.4-1.8,7.8
	c-1.2,3.4-2.9,6.4-5.1,9.3c-2.2,2.8-4.8,5.3-7.9,7.3c-3.2,2.1-6.8,3.6-10.9,4.8C928.2,291.3,923.6,291.9,918.4,291.9"/>
<path class="st1" d="M1021.3,273.2c2.3-7.1,5.5-16.2,9.5-27.2l19.5-54.1h15.9l-36.8,97.4h-16.5l-36.8-97.4H992l19.4,54.1
	c3.8,10.7,7,19.7,9.5,27.2H1021.3z"/>
<path class="st1" d="M1131.7,278c5.3,0,10.1-0.4,14.4-1.3s8.7-2.1,13-3.7v13.2c-3.5,1.7-7.8,3.1-12.9,4.1s-10.6,1.5-16.5,1.5
	c-7,0-13.5-0.9-19.6-2.7c-6.1-1.8-11.4-4.7-15.9-8.6c-4.5-4-8-9.1-10.5-15.5s-3.8-14.1-3.8-23.1c0-8.9,1.2-16.6,3.7-23.1
	s5.7-12,9.8-16.4c4.1-4.4,8.8-7.7,14.1-9.9c5.3-2.2,10.9-3.3,16.7-3.3c5.5,0,10.6,0.9,15.3,2.7c4.7,1.8,8.9,4.7,12.3,8.6
	c3.5,3.9,6.2,8.9,8.2,15.1s3,13.5,3,22.2v2.1c0,0.6,0,1.9-0.1,3.9h-67.3c0,6.2,0.9,11.5,2.8,15.8s4.4,7.9,7.7,10.6
	c3.2,2.7,7,4.7,11.4,5.9C1121.9,277.4,1126.6,278,1131.7,278 M1123.3,203c-3.7,0-7.1,0.7-10.2,2.2c-3.2,1.4-5.9,3.4-8.3,5.8
	c-2.4,2.5-4.3,5.4-5.7,8.7c-1.5,3.3-2.4,6.9-2.7,10.6h49.8c0-3.8-0.5-7.4-1.5-10.7c-1-3.3-2.5-6.2-4.4-8.7s-4.3-4.4-7.2-5.8
	C1130.3,203.7,1127,203,1123.3,203"/>
<rect x="1190.9" y="140.8" class="st1" width="15.9" height="148.5"/>
<path class="st1" d="M1292,204.8h-1.2c-3.8,0-7.5,0.4-11.1,1c-3.6,0.7-7,1.7-10.2,3.1s-6,3.1-8.6,5.2s-4.7,4.5-6.4,7.3v67.9h-15.9
	v-97.4h12.3l3.1,15.5h0.3c1.6-2.5,3.5-4.9,5.8-7.1s4.9-4.1,7.7-5.7c2.9-1.6,6-2.9,9.4-3.9c3.4-0.9,7-1.4,10.8-1.4c0.7,0,1.4,0,2.1,0
	s1.3,0.1,1.9,0.1L1292,204.8L1292,204.8z"/>
<path class="st1" d="M1347.6,291.9c-5.1,0-9.6-0.6-13.6-1.6c-4-1.1-7.6-2.6-10.6-4.6s-5.6-4.4-7.7-7.1c-2.1-2.8-3.8-5.8-5-9.1
	c-1-2.5-1.6-5.2-2.1-8.1c-0.4-2.9-0.6-6.2-0.6-9.6V192h15.9v59.7c0,5.4,0.7,9.9,2.2,13.5c1.6,4.1,4.3,7.3,7.9,9.7
	c3.7,2.4,8.3,3.5,14,3.5c6,0,10.9-1.3,14.5-3.9c3.7-2.6,6.3-6.1,7.8-10.5c1.2-3.3,1.7-7.5,1.7-12.4v-59.7h15.9v59.9
	c0,3.3-0.2,6.3-0.6,9.2c-0.4,2.8-1,5.4-1.8,7.8c-1.2,3.4-2.9,6.4-5.1,9.3c-2.2,2.8-4.8,5.3-7.9,7.3c-3.1,2.1-6.8,3.6-10.9,4.8
	C1357.5,291.3,1352.8,291.9,1347.6,291.9"/>
<path class="st1" d="M1455.3,189.3c4.2,0.1,7.9,0.6,11.1,1.6c3.1,1,5.9,2.3,8.1,3.8c2.3,1.5,4.1,3.1,5.4,4.6s2.2,2.7,2.7,3.6h0.4
	l3.3-11.1h12V295c0,7.5-1.2,14.1-3.7,19.6c-2.5,5.6-5.9,10.2-10.4,13.9c-4.4,3.7-9.8,6.4-16.1,8.2c-6.2,1.8-13.2,2.7-20.8,2.7
	c-6.4,0-12.2-0.6-17.2-1.7c-5.1-1.1-9-2.5-11.9-4v-13.4c2.3,1,4.6,1.8,6.8,2.4c2.2,0.7,4.4,1.2,6.8,1.6c2.3,0.4,4.7,0.8,7.1,1
	s5.1,0.3,8,0.3c11.4,0,20.2-2.7,26.2-8c6.1-5.3,9.1-13.5,9.1-24.4v-13h-0.3c-3.5,3.8-7.5,6.7-12.1,8.7s-9.9,2.9-15.8,2.9
	c-2.7,0-5.7-0.3-8.8-0.9c-3.2-0.6-6.3-1.7-9.4-3.1c-3.1-1.5-6.1-3.4-9-5.8s-5.4-5.5-7.6-9.1c-2.2-3.7-4-8-5.3-13s-2-10.8-2-17.3
	c0-9.1,1.2-17,3.7-23.6c2.5-6.7,5.7-12.2,9.7-16.6s8.6-7.6,13.8-9.8C1444.4,190.4,1449.8,189.3,1455.3,189.3 M1428.6,241.2
	c0,7.7,0.9,13.9,2.8,18.8c1.8,4.9,4.2,8.6,7,11.3c2.8,2.7,5.9,4.5,9.3,5.5c3.3,1,6.5,1.5,9.5,1.5c4.9,0,9.5-1,13.8-3
	s8.1-4.7,11.4-8.1v-51c-0.9-1.2-2.1-2.6-3.7-4.2s-3.4-3-5.5-4.4c-2.1-1.3-4.5-2.5-7.1-3.4c-2.7-0.9-5.6-1.4-8.7-1.4
	c-4.7,0-8.9,0.9-12.5,2.8s-6.6,4.5-9,7.8c-2.4,3.4-4.2,7.4-5.5,12.1C1429.2,230.4,1428.6,235.5,1428.6,241.2"/>
<g>
	<g>
		<g>
			<defs>
				<rect id="SVGID_1_" width="294.7" height="294.7"/>
			</defs>
			<clipPath id="SVGID_2_">
				<use xlink:href="#SVGID_1_"  style="overflow:visible;"/>
			</clipPath>
			
				<linearGradient id="SVGID_3_" gradientUnits="userSpaceOnUse" x1="-2063.4094" y1="2879.3262" x2="-2062.5933" y2="2879.3262" gradientTransform="matrix(0 -121.8497 -121.8497 0 350992.375 -251273.6094)">
				<stop  offset="0" style="stop-color:#7B2F37"/>
				<stop  offset="0.9879" style="stop-color:#B22D3C"/>
				<stop  offset="1" style="stop-color:#B22D3C"/>
			</linearGradient>
			<rect class="st2" width="294.7" height="294.7"/>
		</g>
	</g>
</g>
<path class="st3" d="M218,163.2l-70.6-40.3l-15.8-5.3l-21,14.8l-2.6,1.8c-3.2,2.3-6.9,3.3-10.6,3.3l0,0c-5.7,0-11.4-2.7-14.9-7.7
	c-2.3-3.2-3.4-6.9-3.4-10.6c0-4.5,1.7-9,5-12.5c-5,0.2-8.6,0.5-8.6,0.5s-14.2,35.4-9.8,67.9l2.6,0.5c1.6-4.1,4.9-7.5,9.3-9
	c1.6-0.6,3.3-0.8,4.9-0.8c3,0,6,0.9,8.5,2.6c2.6-2,5.7-3.1,9.2-3.1c0.4,0,0.9,0,1.3,0c2.8,0.3,5.4,1.3,7.6,2.8
	c2.6-2,5.9-3.2,9.3-3.2c0.6,0,1.2,0,1.9,0.1c6.2,0.8,11.1,5.1,12.8,10.7c0.7-0.1,1.4-0.1,2.2-0.1c0.6,0,1.2,0,1.9,0.1
	c7.7,1,13.4,7.5,13.4,15.1c0,0.6,0,1.2-0.1,1.9l-1.4,11.3l16.5,9.5c2.7-0.4,5.2-2,6.7-4.5c1.3-2.3,1.5-4.8,0.8-7.2l-14.8-8.4
	c-0.9-0.5-1.2-1.6-0.7-2.5s1.6-1.2,2.5-0.7l23.2,13.2c2.8-0.3,5.4-1.9,6.9-4.5c1.3-2.3,1.5-4.8,0.8-7.2l-26.8-15.4
	c-0.9-0.5-1.2-1.6-0.7-2.5s1.6-1.2,2.5-0.7l32.7,18.8c2.9-0.3,5.5-1.9,7.1-4.5c1.4-2.4,1.5-5.2,0.6-7.7l-26.8-15.2
	c-0.9-0.5-1.2-1.6-0.7-2.5s1.6-1.2,2.5-0.7l33.1,18.9c2.8-0.3,5.4-1.9,6.9-4.5C223.9,171.3,222.4,165.7,218,163.2"/>
<path class="st3" d="M70.6,103.6l-32.8-13l-17.7,83.2l40,3C55.2,141.8,70.6,103.6,70.6,103.6"/>
<path class="st3" d="M211.4,99.7c0,0-17.1,5.1-22.4,4.3c-1.6-0.2-4.2-0.9-6.9-1.7l-49.6-16.6c-3.7-1.2-7.7-0.6-10.9,1.6l-18,12.7
	l-13.2,9.3c-5.5,3.9-6.8,11.5-2.9,17c2.4,3.4,6.1,5.2,10,5.2c2.4,0,4.9-0.7,7-2.2l26.1-18.4l19.3,6.4l27,15.4l44.1,25.2
	c0.5,0.3,0.9,0.6,1.3,0.9l11.1-4.1C231.4,116.4,211.4,99.7,211.4,99.7"/>
<path class="st3" d="M254.2,79.6l-39.6,14.5c0,0,23,19.3,25.4,63.4l29.7-4.5L254.2,79.6z"/>
<path class="st3" d="M136.4,181.9c-4-0.5-7.8,1.7-9.4,5.2l0.6-5.7c0.6-5-3-9.6-8-10.2s-9.6,3-10.2,8v0.5c-0.4-4.3-3.9-7.9-8.3-8.3
	c-4.6-0.4-8.6,2.6-9.7,7l-0.1-0.3c-1.6-4.8-6.8-7.4-11.6-5.7c-4.8,1.6-7.4,6.8-5.7,11.6l3.7,10.8c1.3,3.8,4.9,6.2,8.7,6.2
	c1,0,2-0.2,2.9-0.5c0.5-0.2,1-0.4,1.4-0.6c1.3,2.9,4.1,5.1,7.6,5.3c0.3,0,0.5,0.1,0.8,0.1c3.5,0,6.6-2,8.1-5l-0.1,0.6
	c-0.6,5,3,9.6,8,10.2c0.4,0,0.7,0.1,1.1,0.1c3.5,0,6.7-2,8.2-5.1c0,4.5,3.4,8.4,8,9c0.4,0,0.8,0,1.1,0c4.6,0,8.5-3.4,9.1-8l1.8-15.1
	C145,187,141.5,182.5,136.4,181.9"/>
</svg>
